:SAMPLES-PER-SECOND 30
:FULLY-SPECIFIED
:DEGREES
288
root  -40.7057 32.6097 1.45515 4.15513 -35.5276 -1.65523
RightUpLeg  -23.5044 -20.0285 -2.26846
RightLeg  47.4107 6.23243 5.88994
RightFoot  -8.4762 -0.118596 -1.10366
RightToes  -29.0797 -0.137635 -0.245519
Spine  -2.23419 1.28553 -0.0328207
Spine1  -4.54637 2.9072 0.435757
HEad  -92.0807 -8.03106 14.9862
LeftShoulder1  -1.94126e-019 -3.10601e-018 -2.51263e-017
LeftArm  -82.6343 -28.4635 13.0202
LeftForeArm  50.075 -74.2063 -36.1519
LeftHand  -1.26553 -2.30515 19.1837
RightShoulder  -4.96962e-017 0 -2.36833e-017
RightArm  -88.3479 29.991 -20.2167
RightForeArm  64.4486 74.7824 33.9473
RightHand  0.608109 -7.66193 -30.4065
LeftUpLeg  -4.36183 15.6789 11.9508
LeftLeg  33.5275 1.12412 0.639697
LeftFoot  -11.6585 -0.0249511 -0.0828885
LeftToes  -48.8624 1.70063e-006 7.6642e-008
289
root  -40.5135 33.0212 1.29983 4.80494 -37.7558 -2.04495
RightUpLeg  -23.3356 -19.3228 -1.96333
RightLeg  44.5741 8.42234 7.1985
RightFoot  -5.09286 -0.0590305 -0.8417
RightToes  -31.736 -0.156056 -0.263849
Spine  -2.21949 0.939995 0.0939271
Spine1  -4.52888 2.2601 0.668534
HEad  -90.7013 -12.9328 15.9505
LeftShoulder1  -1.94126e-019 -3.10601e-018 -2.51263e-017
LeftArm  -77.398 -27.9827 14.1253
LeftForeArm  57.3531 -74.9927 -37.0734
LeftHand  -1.47299 -3.17285 20.0592
RightShoulder  -4.96962e-017 0 -2.36833e-017
RightArm  -83.1308 28.9574 -18.3641
RightForeArm  73.202 77.0612 41.038
RightHand  0.547496 -6.78829 -42.2786
LeftUpLeg  -6.5363 15.354 11.4229
LeftLeg  36.6115 2.65616 1.71335
LeftFoot  -6.87802 -0.0207307 -0.183457
LeftToes  -50.6539 1.70063e-006 7.6642e-008
290
root  -40.2096 33.886 1.19129 5.61816 -40.125 -2.51867
RightUpLeg  -20.9123 -19.1088 -1.61219
RightLeg  36.9138 11.568 7.47048
RightFoot  0.332581 0.000413984 0.202011
RightToes  -33.2363 -0.16683 -0.273818
Spine  -2.32824 0.785744 0.241039
Spine1  -4.73478 1.96535 0.931667
HEad  -89.6227 -17.7381 16.8902
LeftShoulder1  -1.94126e-019 -3.10601e-018 -2.51263e-017
LeftArm  -74.4149 -31.4545 15.5231
LeftForeArm  51.0607 -69.9057 -25.4122
LeftHand  -1.55072 -3.60285 20.1143
RightShoulder  -4.96962e-017 0 -2.36833e-017
RightArm  -79.505 28.5733 -19.0086
RightForeArm  75.2425 74.2717 30.1554
RightHand  -0.437953 -4.09598 -38.5855
LeftUpLeg  -8.36334 14.0068 10.4978
LeftLeg  37.7839 4.25144 2.86758
LeftFoot  1.59126 -0.00275145 0.359677
LeftToes  -52.9209 1.70063e-006 7.6642e-008
291
root  -39.7742 34.9673 1.15148 6.96185 -43.76 -2.82024
RightUpLeg  -18.5033 -17.8343 -1.41481
RightLeg  27.1008 15.602 6.64329
RightFoot  8.81024 -0.178727 2.75803
RightToes  -36.428 -0.190595 -0.294068
Spine  -2.6844 0.771279 0.332916
Spine1  -5.40974 1.9441 1.10226
HEad  -88.7109 -21.2602 18.4385
LeftShoulder1  -1.94126e-019 -3.10601e-018 -2.51263e-017
LeftArm  -73.5751 -35.4233 17.3545
LeftForeArm  44.5759 -61.3214 -16.3462
LeftHand  -1.35707 -3.71165 17.4703
RightShoulder  -4.96962e-017 0 -2.36833e-017
RightArm  -76.5108 30.0502 -21.5082
RightForeArm  67.0861 67.4514 19.5261
RightHand  -1.15502 -0.811066 -28.8741
LeftUpLeg  -8.55687 13.3459 8.88864
LeftLeg  33.8032 5.36327 3.09884
LeftFoot  7.69226 -0.0601057 1.05556
LeftToes  -48.37 1.70063e-006 7.6642e-008
292
root  -39.2113 35.9482 1.10754 8.81182 -48.7849 -3.11764
RightUpLeg  -17.2089 -14.5467 -1.45603
RightLeg  17.1941 19.1933 4.52329
RightFoot  18.9855 -1.05915 6.75123
RightToes  -43.0078 -0.242945 -0.331475
Spine  -3.05205 0.853739 0.414634
Spine1  -6.1102 2.09398 1.28379
HEad  -87.9252 -23.7633 20.5177
LeftShoulder1  -1.94126e-019 -3.10601e-018 -2.51263e-017
LeftArm  -74.5226 -38.2285 19.7309
LeftForeArm  40.5716 -51.7716 -11.049
LeftHand  -1.09506 -3.4839 14.5303
RightShoulder  -4.96962e-017 0 -2.36833e-017
RightArm  -74.319 32.937 -25.7056
RightForeArm  58.2645 58.1272 12.8072
RightHand  -1.00776 1.16053 -17.9049
LeftUpLeg  -8.1312 11.1479 6.72693
LeftLeg  26.6678 0.494015 0.205565
LeftFoot  6.32264 -0.00536017 0.258563
LeftToes  -48.6514 1.70063e-006 7.6642e-008
293
root  -38.5744 36.5396 1.05216 10.6443 -54.3885 -3.15675
RightUpLeg  -18.0954 -11.6397 -1.66172
RightLeg  11.5192 19.1291 2.58987
RightFoot  25.5556 -1.89109 8.75083
RightToes  -45.9198 -0.267415 -0.346062
Spine  -3.31753 0.82563 0.493375
Spine1  -6.61581 2.02212 1.46224
HEad  -87.0754 -24.7424 22.5673
LeftShoulder1  -1.94126e-019 -3.10601e-018 -2.51263e-017
LeftArm  -78.1511 -39.3872 21.5518
LeftForeArm  40.3629 -43.5577 -7.93955
LeftHand  -0.882655 -3.79784 11.397
RightShoulder  -4.96962e-017 0 -2.36833e-017
RightArm  -74.3425 36.8375 -31.4745
RightForeArm  55.2129 47.8119 8.37892
RightHand  -0.627168 3.92925 -8.06643
LeftUpLeg  -8.60943 7.42383 4.34912
LeftLeg  20.8558 -3.43597 -1.06418
LeftFoot  4.62301 0.0135071 -0.110632
LeftToes  -51.075 1.70063e-006 7.6642e-008
294
root  -37.9275 36.6785 0.943403 12.6424 -59.8322 -3.98033
RightUpLeg  -21.3445 -10.2366 -1.04557
RightLeg  15.2293 10.2713 2.08801
RightFoot  24.2048 -0.854919 4.46364
RightToes  -38.5026 -0.206633 -0.306508
Spine  -3.42278 0.920865 0.527748
Spine1  -6.81989 2.21294 1.52527
HEad  -86.7179 -25.6778 25.0615
LeftShoulder1  -1.94126e-019 -3.10601e-018 -2.51263e-017
LeftArm  -82.9434 -39.9147 21.2798
LeftForeArm  43.4147 -41.3156 -7.06308
LeftHand  -0.686892 -4.08531 8.68334
RightShoulder  -4.96962e-017 0 -2.36833e-017
RightArm  -74.4585 38.9311 -35.2876
RightForeArm  59.7122 41.133 6.05833
RightHand  0.0255637 7.09304 -0.120842
LeftUpLeg  -9.88478 1.04649 2.99848
LeftLeg  18.1349 -4.68989 -1.20988
LeftFoot  4.16136 0.0124698 -0.18173
LeftToes  -52.2214 1.70063e-006 7.6642e-008
